<svg width="20" height="18" viewBox="0 0 20 18" fill="none" xmlns="http://www.w3.org/2000/svg">
<path d="M9.21739 5.73077C9.21739 5.78177 9.18991 5.83069 9.14098 5.86675C9.09206 5.90282 9.02571 5.92308 8.95652 5.92308H7.91304C7.84386 5.92308 7.7775 5.90282 7.72858 5.86675C7.67966 5.83069 7.65217 5.78177 7.65217 5.73077C7.65217 5.67977 7.67966 5.63085 7.72858 5.59479C7.7775 5.55872 7.84386 5.53846 7.91304 5.53846H8.95652C9.02571 5.53846 9.09206 5.55872 9.14098 5.59479C9.18991 5.63085 9.21739 5.67977 9.21739 5.73077ZM12.6087 12.0221L12.8643 13.3413C12.8803 13.4233 12.872 13.5069 12.8402 13.5864C12.8084 13.6658 12.7538 13.7393 12.68 13.8018C12.6063 13.8643 12.5151 13.9143 12.4128 13.9485C12.3105 13.9827 12.1993 14.0003 12.087 14H7.91304C7.8009 14 7.69006 13.9822 7.58803 13.9479C7.48601 13.9136 7.39518 13.8635 7.32171 13.801C7.24824 13.7386 7.19383 13.6652 7.16218 13.5859C7.13053 13.5066 7.12237 13.4232 7.13826 13.3413L7.3913 12.0221C6.37557 11.6599 5.51875 11.0941 4.91897 10.3896C4.3192 9.68506 4.00071 8.87024 4 8.03846C4 7.98746 4.02748 7.93854 4.07641 7.90248C4.12533 7.86641 4.19168 7.84615 4.26087 7.84615H5.56522V4.57692C5.56522 4.42391 5.64767 4.27717 5.79444 4.16898C5.94121 4.06078 6.14027 4 6.34783 4H13.6522C13.8597 4 14.0588 4.06078 14.2056 4.16898C14.3523 4.27717 14.4348 4.42391 14.4348 4.57692V7.84615H15.7391C15.8083 7.84615 15.8747 7.86641 15.9236 7.90248C15.9725 7.93854 16 7.98746 16 8.03846C15.9993 8.87024 15.6808 9.68506 15.081 10.3896C14.4813 11.0941 13.6244 11.6599 12.6087 12.0221ZM6.08696 7.84615H13.913V4.57692C13.913 4.52592 13.8856 4.47701 13.8366 4.44094C13.7877 4.40488 13.7214 4.38462 13.6522 4.38462H6.34783C6.27864 4.38462 6.21229 4.40488 6.16336 4.44094C6.11444 4.47701 6.08696 4.52592 6.08696 4.57692V7.84615ZM12.1091 12.1793C10.7494 12.5557 9.25061 12.5557 7.89087 12.1793L7.65217 13.3957C7.64687 13.423 7.6496 13.4508 7.66018 13.4773C7.67076 13.5037 7.68894 13.5282 7.71348 13.549C7.73803 13.5703 7.76866 13.5872 7.80317 13.5987C7.83767 13.6102 7.8752 13.6159 7.91304 13.6154H12.087C12.1241 13.6154 12.1609 13.6095 12.1947 13.5981C12.2285 13.5866 12.2585 13.5699 12.2826 13.549C12.3072 13.5282 12.3253 13.5037 12.3359 13.4773C12.3465 13.4508 12.3492 13.423 12.3439 13.3957L12.1091 12.1793ZM15.4724 8.23077H4.52761C4.59282 9.26836 5.19785 10.2475 6.21698 10.9648C7.23611 11.6821 8.59097 12.0823 10 12.0823C11.409 12.0823 12.7639 11.6821 13.783 10.9648C14.8021 10.2475 15.4072 9.26836 15.4724 8.23077Z" fill="#1B1B1B"/>
</svg>
