<svg width="20" height="18" viewBox="0 0 20 18" fill="none" xmlns="http://www.w3.org/2000/svg">
<path d="M4 14V9.45455C4 9.18545 4.05689 8.89879 4.17067 8.59455C4.28444 8.2903 4.44978 8.06182 4.66667 7.90909V5.81818C4.66667 5.30545 4.79489 4.87424 5.05133 4.52455C5.30778 4.17485 5.624 4 6 4H9C9.22978 4 9.426 4.06455 9.58867 4.19364C9.75089 4.32212 9.888 4.5 10 4.72727C10.112 4.5 10.2491 4.32212 10.4113 4.19364C10.574 4.06455 10.7702 4 11 4H14C14.376 4 14.6922 4.17485 14.9487 4.52455C15.2051 4.87424 15.3333 5.30545 15.3333 5.81818V7.90909C15.5502 8.06182 15.7156 8.2903 15.8293 8.59455C15.9431 8.89879 16 9.18545 16 9.45455V14H15.3333V12.1818H4.66667V14H4ZM10.3333 7.63636H14.6667V5.81818C14.6667 5.56061 14.6027 5.34485 14.4747 5.17091C14.3467 4.99697 14.1884 4.9097 14 4.90909H11C10.8111 4.90909 10.6529 4.99636 10.5253 5.17091C10.3978 5.34545 10.3338 5.56121 10.3333 5.81818V7.63636ZM5.33333 7.63636H9.66667V5.81818C9.66667 5.56061 9.60267 5.34485 9.47467 5.17091C9.34667 4.99697 9.18844 4.9097 9 4.90909H6C5.81111 4.90909 5.65289 4.99636 5.52533 5.17091C5.39778 5.34545 5.33378 5.56121 5.33333 5.81818V7.63636ZM4.66667 11.2727H15.3333V9.45455C15.3333 9.19697 15.2693 8.98121 15.1413 8.80727C15.0133 8.63333 14.8551 8.54606 14.6667 8.54545H5.33333C5.14444 8.54545 4.98622 8.63273 4.85867 8.80727C4.73111 8.98182 4.66711 9.19758 4.66667 9.45455V11.2727Z" fill="#1B1B1B" fill-opacity="0.8"/>
</svg>
