<svg width="28" height="28" viewBox="0 0 28 28" fill="none" xmlns="http://www.w3.org/2000/svg">
<path d="M13.7778 1.52933C13.7199 1.53025 13.6647 1.55406 13.6244 1.59555C13.5841 1.63704 13.5618 1.69282 13.5625 1.75069V5.25069H13.3709C13.3129 5.25069 13.2572 5.27373 13.2162 5.31475C13.1752 5.35578 13.1521 5.41143 13.1521 5.46944V7.00069H12.0312C11.9732 7.00069 11.9176 7.02373 11.8766 7.06475C11.8356 7.10578 11.8125 7.16143 11.8125 7.21944V12.2507H4.15625C4.09823 12.2507 4.0426 12.2737 4.00157 12.3148C3.96055 12.3558 3.9375 12.4114 3.9375 12.4694V24.5007H2.40625C2.34823 24.5007 2.2926 24.5237 2.25157 24.5648C2.21055 24.6058 2.1875 24.6615 2.1875 24.7195V26.032C2.1875 26.09 2.21055 26.1456 2.25157 26.1866C2.2926 26.2277 2.34823 26.2507 2.40625 26.2507H24.7188C24.7768 26.2507 24.8324 26.2277 24.8734 26.1866C24.9144 26.1456 24.9375 26.09 24.9375 26.032V24.7195C24.9375 24.6615 24.9144 24.6058 24.8734 24.5648C24.8324 24.5237 24.7768 24.5007 24.7188 24.5007H23.1875V7.21944C23.1875 7.16143 23.1644 7.10578 23.1234 7.06475C23.0824 7.02373 23.0268 7.00069 22.9688 7.00069H14.4375V5.46944C14.4375 5.41143 14.4144 5.35578 14.3734 5.31475C14.3324 5.27373 14.2768 5.25069 14.2188 5.25069H14V1.75069C14.0004 1.72145 13.9948 1.69243 13.9838 1.66535C13.9727 1.63827 13.9564 1.6137 13.9356 1.59306C13.9149 1.57243 13.8903 1.55613 13.8632 1.54519C13.836 1.53424 13.807 1.52886 13.7778 1.52933ZM13.5896 5.68819H14V6.97356H13.5896V5.68819ZM12.25 7.43819H22.75V24.5007H21.4375V20.3445C21.4375 20.2865 21.4144 20.2308 21.3734 20.1898C21.3324 20.1487 21.2768 20.1257 21.2188 20.1257H14.875V19.2507H21.2188C21.2768 19.2507 21.3324 19.2277 21.3734 19.1866C21.4144 19.1456 21.4375 19.09 21.4375 19.032V16.407C21.4375 16.349 21.4144 16.2933 21.3734 16.2523C21.3324 16.2112 21.2768 16.1882 21.2188 16.1882H14.875V15.3132H21.2188C21.2768 15.3132 21.3324 15.2902 21.3734 15.2491C21.4144 15.2081 21.4375 15.1525 21.4375 15.0944V12.4694C21.4375 12.4114 21.4144 12.3558 21.3734 12.3148C21.3324 12.2737 21.2768 12.2507 21.2188 12.2507H12.25V7.43819ZM13.7812 8.31319C13.7232 8.31319 13.6676 8.33623 13.6266 8.37725C13.5856 8.41828 13.5625 8.47393 13.5625 8.53194V11.1569C13.5625 11.215 13.5856 11.2706 13.6266 11.3116C13.6676 11.3527 13.7232 11.3757 13.7812 11.3757H21.2188C21.2768 11.3757 21.3324 11.3527 21.3734 11.3116C21.4144 11.2706 21.4375 11.215 21.4375 11.1569V8.53194C21.4375 8.47393 21.4144 8.41828 21.3734 8.37725C21.3324 8.33623 21.2768 8.31319 21.2188 8.31319H13.7812ZM14 8.75069H21V10.9382H14V8.75069ZM4.375 12.6882H11.998C12.02 12.6916 12.0425 12.6916 12.0645 12.6882H14.4375V24.5007H13.125V21.657C13.125 21.599 13.1019 21.5433 13.0609 21.5023C13.0199 21.4612 12.9643 21.4382 12.9062 21.4382H5.90625C5.84823 21.4382 5.7926 21.4612 5.75157 21.5023C5.71055 21.5433 5.6875 21.599 5.6875 21.657V24.5007H4.375V12.6882ZM14.875 12.6882H21V14.8757H14.875V12.6882ZM5.90625 13.5632C5.84823 13.5632 5.7926 13.5862 5.75157 13.6273C5.71055 13.6683 5.6875 13.7239 5.6875 13.7819V16.407C5.6875 16.465 5.71055 16.5206 5.75157 16.5616C5.7926 16.6027 5.84823 16.6257 5.90625 16.6257H8.53125C8.58927 16.6257 8.6449 16.6027 8.68593 16.5616C8.72695 16.5206 8.75 16.465 8.75 16.407V13.7819C8.75 13.7239 8.72695 13.6683 8.68593 13.6273C8.6449 13.5862 8.58927 13.5632 8.53125 13.5632H5.90625ZM10.2812 13.5632C10.2232 13.5632 10.1676 13.5862 10.1266 13.6273C10.0855 13.6683 10.0625 13.7239 10.0625 13.7819V16.407C10.0625 16.465 10.0855 16.5206 10.1266 16.5616C10.1676 16.6027 10.2232 16.6257 10.2812 16.6257H12.9062C12.9643 16.6257 13.0199 16.6027 13.0609 16.5616C13.1019 16.5206 13.125 16.465 13.125 16.407V13.7819C13.125 13.7239 13.1019 13.6683 13.0609 13.6273C13.0199 13.5862 12.9643 13.5632 12.9062 13.5632H10.2812ZM6.125 14.0007H8.3125V16.1882H6.125V14.0007ZM10.5 14.0007H12.6875V16.1882H10.5V14.0007ZM14.875 16.6257H21V18.8132H14.875V16.6257ZM5.90625 17.5007C5.84823 17.5007 5.7926 17.5237 5.75157 17.5648C5.71055 17.6058 5.6875 17.6615 5.6875 17.7195V20.3445C5.6875 20.4025 5.71055 20.4581 5.75157 20.4991C5.7926 20.5402 5.84823 20.5632 5.90625 20.5632H8.53125C8.58927 20.5632 8.6449 20.5402 8.68593 20.4991C8.72695 20.4581 8.75 20.4025 8.75 20.3445V17.7195C8.75 17.6615 8.72695 17.6058 8.68593 17.5648C8.6449 17.5237 8.58927 17.5007 8.53125 17.5007H5.90625ZM10.2812 17.5007C10.2232 17.5007 10.1676 17.5237 10.1266 17.5648C10.0855 17.6058 10.0625 17.6615 10.0625 17.7195V20.3445C10.0625 20.4025 10.0855 20.4581 10.1266 20.4991C10.1676 20.5402 10.2232 20.5632 10.2812 20.5632H12.9062C12.9643 20.5632 13.0199 20.5402 13.0609 20.4991C13.1019 20.4581 13.125 20.4025 13.125 20.3445V17.7195C13.125 17.6615 13.1019 17.6058 13.0609 17.5648C13.0199 17.5237 12.9643 17.5007 12.9062 17.5007H10.2812ZM6.125 17.9382H8.3125V20.1257H6.125V17.9382ZM10.5 17.9382H12.6875V20.1257H10.5V17.9382ZM14.875 20.5632H15.75V24.5007H14.875V20.5632ZM16.1875 20.5632H18.375V24.5007H16.1875V20.5632ZM18.8125 20.5632H21V24.5007H18.8125V20.5632ZM6.125 21.8757H12.6875V24.5007H6.125V21.8757ZM2.625 24.9382H24.5V25.8132H2.625V24.9382Z" fill="#1B1B1B"/>
</svg>
