<svg xmlns="http://www.w3.org/2000/svg" width="24" height="24" viewBox="0 0 24 24" fill="none">
  <path d="M7.86 17.75L12 13.61L16.14 17.75L17.75 16.14L13.61 12L17.75 7.86L16.14 6.25L12 10.39L7.86 6.25L6.25 7.86L10.39 12L6.25 16.14L7.86 17.75ZM12 23.5C10.4092 23.5 8.91417 23.1979 7.515 22.5938C6.11583 21.9897 4.89875 21.1705 3.86375 20.1362C2.82875 19.1012 2.00957 17.8842 1.4062 16.485C0.802833 15.0858 0.500767 13.5908 0.5 12C0.5 10.4092 0.802067 8.91417 1.4062 7.515C2.01033 6.11583 2.82952 4.89875 3.86375 3.86375C4.89875 2.82875 6.11583 2.00957 7.515 1.4062C8.91417 0.802833 10.4092 0.500767 12 0.5C13.5908 0.5 15.0858 0.802067 16.485 1.4062C17.8842 2.01033 19.1012 2.82952 20.1362 3.86375C21.1712 4.89875 21.9908 6.11583 22.5949 7.515C23.1991 8.91417 23.5008 10.4092 23.5 12C23.5 13.5908 23.1979 15.0858 22.5938 16.485C21.9897 17.8842 21.1705 19.1012 20.1362 20.1362C19.1012 21.1712 17.8842 21.9908 16.485 22.5949C15.0858 23.1991 13.5908 23.5008 12 23.5Z" fill="#1B1B1B"/>
</svg>