<svg width="64" height="64" viewBox="0 0 64 64" fill="none" xmlns="http://www.w3.org/2000/svg">
<rect width="64" height="64" rx="32" fill="#16A34A"/>
<path d="M44.6952 23.8977L28.056 41.6742C27.9594 41.7775 27.8447 41.8594 27.7184 41.9153C27.5922 41.9712 27.4569 42 27.3202 42C27.1835 42 27.0482 41.9712 26.922 41.9153C26.7957 41.8594 26.681 41.7775 26.5844 41.6742L19.3048 33.897C19.1096 33.6885 19 33.4057 19 33.1109C19 32.8161 19.1096 32.5333 19.3048 32.3248C19.4999 32.1164 19.7646 31.9993 20.0405 31.9993C20.3165 31.9993 20.5812 32.1164 20.7763 32.3248L27.3202 39.3174L43.2237 22.3256C43.4188 22.1171 43.6835 22 43.9595 22C44.2354 22 44.5001 22.1171 44.6952 22.3256C44.8904 22.5341 45 22.8168 45 23.1116C45 23.4065 44.8904 23.6892 44.6952 23.8977Z" fill="white"/>
</svg>
