<svg width="24" height="24" viewBox="0 0 24 24" fill="none" xmlns="http://www.w3.org/2000/svg">
<path d="M19.625 7.94945L16.0499 4.37501C15.9311 4.25612 15.79 4.16181 15.6347 4.09746C15.4794 4.03312 15.3129 4 15.1448 4C14.9767 4 14.8102 4.03312 14.6549 4.09746C14.4996 4.16181 14.3585 4.25612 14.2396 4.37501L4.37519 14.2399C4.25582 14.3584 4.16118 14.4993 4.09677 14.6547C4.03236 14.81 3.99947 14.9766 4.00001 15.1447V18.72C4.00001 19.0595 4.13486 19.385 4.3749 19.6251C4.61493 19.8651 4.94049 20 5.27996 20H18.7194C18.8892 20 19.052 19.9326 19.172 19.8125C19.292 19.6925 19.3594 19.5297 19.3594 19.36C19.3594 19.1903 19.292 19.0275 19.172 18.9074C19.052 18.7874 18.8892 18.72 18.7194 18.72H10.6654L19.625 9.75988C19.7439 9.64101 19.8382 9.49989 19.9025 9.34457C19.9669 9.18926 20 9.02278 20 8.85466C20 8.68655 19.9669 8.52007 19.9025 8.36476C19.8382 8.20944 19.7439 8.06832 19.625 7.94945ZM8.85502 18.72H5.27996V15.1447L12.3197 8.10466L15.8948 11.6799L8.85502 18.72ZM16.7995 10.7751L13.2253 7.19985L15.1452 5.27982L18.7194 8.85507L16.7995 10.7751Z" fill="#002147"/>
</svg>
