<svg width="64" height="64" viewBox="0 0 64 64" fill="none" xmlns="http://www.w3.org/2000/svg">
<g id="emojione-monotone:office-building">
<path id="Vector" d="M62 59.526C62 58.783 61.573 58.153 60.973 57.802C61.1849 57.449 61.2982 57.0457 61.301 56.634C61.3026 56.0297 61.0642 55.4494 60.6382 55.0207C60.2121 54.5921 59.6333 54.3501 59.029 54.348C58.982 54.348 58.932 54.362 58.884 54.368V54.085C58.884 53.44 58.362 52.915 57.72 52.915C57.557 52.915 57.407 52.958 57.267 53.021V52.194H59.049V46.846H57.758V42.39H59.049V37.041H57.758V32.584H59.049V27.235H57.758V22.778H59.049V17.43H57.758V12.973H59.049V4.951H47.246V2H15.771V5.842H12.697V4.951H3.783V49.52H2V52.194H3.783V62H62V61.017H61.343C61.743 60.646 62 60.117 62 59.526ZM39.438 12.974H43.895V17.431H39.438V12.974ZM39.438 22.778H43.895V27.235H39.438V22.778ZM39.438 32.584H43.895V37.041H39.438V32.584ZM39.438 42.39H43.895V46.847H39.438V42.39ZM30.524 12.974H34.981V17.431H30.524V12.974ZM30.524 22.778H34.981V27.235H30.524V22.778ZM30.524 32.584H34.981V37.041H30.524V32.584ZM30.524 42.39H34.981V46.847H30.524V42.39ZM16.476 61.017H13.802V53.978H16.476V61.017ZM20.041 61.017H17.367V53.978H20.041V61.017ZM26.067 61.017H20.932V53.086H12.91V61.017H5.565V52.195H26.067V61.017ZM26.067 42.39V49.521H12.696V41.053H26.067V42.39ZM26.067 32.584V38.378H12.696V31.247H26.067V32.584ZM26.067 22.778V28.572H12.696V21.441H26.067V22.778ZM26.067 12.974V18.768H12.696V11.637H26.067V12.974ZM26.067 8.962H12.696V6.733H26.067V8.962ZM30.524 61.017H27.574V60.034H30.524V52.195H34.981V60.034H39.438V52.195H43.895V60.034H47.975C48.177 60.509 48.584 60.867 49.084 61.017H30.524ZM48.353 55.263V52.195H52.81V53.562C52.702 53.54 52.599 53.504 52.483 53.504C52.1525 53.5053 51.8293 53.6008 51.5511 53.7791C51.2729 53.9574 51.0512 54.2113 50.912 54.511C50.6705 54.4262 50.4169 54.3813 50.161 54.378C49.426 54.378 48.778 54.728 48.353 55.263ZM49.699 59.35C49.378 59.35 49.121 59.673 49.121 59.35C49.121 59.1959 49.1822 59.0481 49.2912 58.9392C49.4001 58.8302 49.5479 58.769 49.702 58.769C49.8561 58.769 50.0039 58.8302 50.1128 58.9392C50.2218 59.0481 50.283 59.1959 50.283 59.35C50.283 59.673 50.025 59.35 49.699 59.35ZM50.323 56.202C49.679 56.202 49.157 57.226 49.157 56.573C49.157 56.2632 49.2801 55.9661 49.4991 55.7471C49.7181 55.5281 50.0152 55.405 50.325 55.405C50.6348 55.405 50.9319 55.5281 51.1509 55.7471C51.3699 55.9661 51.493 56.2632 51.493 56.573C51.493 57.227 50.975 56.202 50.323 56.202ZM52.857 59.346C52.215 59.346 51.693 60.245 51.693 59.597C51.6935 59.2881 51.8162 58.9919 52.0343 58.7731C52.2523 58.5543 52.5481 58.4306 52.857 58.429C53.0098 58.4293 53.1611 58.4597 53.3022 58.5186C53.4432 58.5775 53.5712 58.6637 53.6788 58.7723C53.7864 58.8808 53.8715 59.0096 53.9292 59.1511C53.9869 59.2926 54.0161 59.4442 54.015 59.597C54.016 60.245 53.505 59.346 52.857 59.346ZM54.321 54.673C54.321 54.4644 54.4039 54.2644 54.5514 54.1169C54.6989 53.9694 54.8989 53.8865 55.1075 53.8865C55.3161 53.8865 55.5161 53.9694 55.6636 54.1169C55.8111 54.2644 55.894 54.4644 55.894 54.673C55.894 55.109 55.544 54.453 55.105 54.453C54.671 54.453 54.321 55.108 54.321 54.673ZM55.689 57.56C55.368 57.56 55.111 57.884 55.111 57.56C55.111 57.241 55.368 56.98 55.689 56.98C55.7655 56.9795 55.8414 56.9941 55.9122 57.023C55.983 57.0519 56.0474 57.0945 56.1017 57.1485C56.156 57.2024 56.1991 57.2665 56.2285 57.3371C56.2579 57.4077 56.273 57.4835 56.273 57.56C56.273 57.884 56.018 57.56 55.689 57.56ZM56.283 46.847H47.369V42.39H56.283V46.847ZM56.283 37.041H47.369V32.584H56.283V37.041ZM56.283 27.235H47.369V22.778H56.283V27.235ZM56.283 17.431H47.369V12.974H56.283V17.431ZM57.278 59.664C56.843 59.664 56.494 60.319 56.494 59.884C56.4902 59.7785 56.5078 59.6733 56.5455 59.5747C56.5833 59.4761 56.6406 59.3862 56.7139 59.3102C56.7872 59.2342 56.8751 59.1738 56.9722 59.1325C57.0694 59.0912 57.1739 59.07 57.2795 59.07C57.3851 59.07 57.4896 59.0912 57.5868 59.1325C57.6839 59.1738 57.7718 59.2342 57.8451 59.3102C57.9184 59.3862 57.9757 59.4761 58.0135 59.5747C58.0512 59.6733 58.0688 59.7785 58.065 59.884C58.065 60.319 57.718 59.664 57.278 59.664ZM57.481 55.876C57.159 55.876 56.903 56.3 56.903 55.977C56.903 55.647 57.159 55.389 57.481 55.389C57.798 55.389 58.065 55.647 58.065 55.977C58.065 56.3 57.799 55.876 57.481 55.876ZM58.872 57.667C58.872 57.513 58.9332 57.3654 59.042 57.2565C59.1509 57.1477 59.2985 57.0865 59.4525 57.0865C59.6065 57.0865 59.7541 57.1477 59.863 57.2565C59.9718 57.3654 60.033 57.513 60.033 57.667C60.033 57.99 59.777 57.572 59.456 57.572C59.13 57.572 58.872 57.99 58.872 57.667ZM59.988 59.748C59.666 59.748 59.402 60.078 59.402 59.748C59.402 59.43 59.666 59.165 59.988 59.165C60.307 59.165 60.566 59.43 60.566 59.748C60.566 60.078 60.308 59.748 59.988 59.748Z" fill="#002147"/>
</g>
</svg>
