<svg width="64" height="64" viewBox="0 0 64 64" fill="none" xmlns="http://www.w3.org/2000/svg">
<g id="emojione-monotone:houses">
<path id="Vector" d="M61.035 39.982H61.973L58.223 36.311V19.3H62L57.409 16.27V12.508H58.222V10.918H52.536V12.508H53.349V13.59L47.91 10L33.82 19.3H37.597V36.311L33.847 39.982H34.785V52.718C34.6231 52.6744 34.4566 52.6506 34.289 52.647C34.05 52.647 33.824 52.694 33.61 52.768C33.456 51.747 31.726 51.455 31.21 52.209C31.235 52.098 31.251 51.984 31.251 51.866C31.2491 51.4498 31.0821 51.0513 30.7866 50.7582C30.491 50.4652 30.0912 50.3014 29.675 50.303C29.512 50.303 29.361 50.336 29.215 50.383V39.982H30.153L26.403 36.311V19.3H30.18L25.59 16.271V12.508H26.403V10.918H20.717V12.508H21.53V13.591L16.09 10L2 19.3H5.777V36.311L2.027 39.982H2.965V58.33H2V62H62V58.33H61.035V39.982ZM39.598 19.3H56.223V36.311H39.598V19.3ZM59.035 41.963V58.33H46.035V46.404H46.973V44.568H38.535V46.404H39.473V58.33H36.785V41.963H59.035ZM43.997 52.366C43.997 52.024 44.279 51.748 44.63 51.748C44.98 51.748 45.262 52.024 45.262 52.366C45.262 52.709 44.98 52.986 44.63 52.986C44.5477 52.9871 44.4659 52.9718 44.3895 52.9412C44.3131 52.9106 44.2435 52.8652 44.1846 52.8076C44.1258 52.7499 44.079 52.6813 44.0468 52.6055C44.0146 52.5297 43.9977 52.4483 43.997 52.366ZM12.177 52.366C12.177 52.024 12.459 51.748 12.81 51.748C13.16 51.748 13.442 52.024 13.442 52.366C13.442 52.709 13.16 52.986 12.81 52.986C12.7277 52.9871 12.6459 52.9718 12.5695 52.9412C12.4931 52.9106 12.4235 52.8652 12.3646 52.8076C12.3058 52.7499 12.259 52.6813 12.2268 52.6055C12.1946 52.5297 12.1777 52.4483 12.177 52.366ZM34.785 57.094C34.758 57.088 34.733 57.077 34.704 57.077C34.413 57.077 34.179 57.365 34.179 57.077C34.179 56.789 34.413 56.557 34.704 56.557C34.733 56.557 34.758 56.568 34.785 56.573V57.094ZM29.215 57.085V56.273C29.763 56.308 30.2 56.75 30.2 57.3C30.2 57.854 29.765 57.143 29.215 57.085ZM34.139 53.56C34.387 53.56 34.605 53.657 34.785 53.799V54.575C34.606 54.432 34.384 54.273 34.139 54.273C33.556 54.273 33.082 55.184 33.082 54.606C33.082 54.027 33.556 53.56 34.139 53.56ZM32.445 55.849C32.839 55.849 33.157 56.163 33.157 56.554C33.157 56.944 32.839 56.364 32.445 56.364C32.051 56.364 31.733 56.944 31.733 56.554C31.733 56.163 32.052 55.849 32.445 55.849ZM29.816 52.202C29.9092 52.2016 30.0016 52.2196 30.0879 52.2549C30.1742 52.2902 30.2527 52.3422 30.3189 52.4078C30.3851 52.4735 30.4378 52.5515 30.4738 52.6375C30.5099 52.7235 30.5286 52.8158 30.529 52.909C30.529 53.299 30.21 52.718 29.816 52.718C29.562 52.718 29.34 52.958 29.214 53.024V52.554C29.2753 52.4482 29.363 52.3602 29.4685 52.2985C29.574 52.2368 29.6938 52.2035 29.816 52.202ZM7.777 19.3H24.402V36.311H7.777V19.3ZM4.965 41.963H27.215V58.33H14.215V46.404H15.153V44.568H6.715V46.404H7.653V58.33H4.965V41.963Z" fill="#002147"/>
<path id="Vector_2" d="M58.1593 44.546H48.5353V54.086H58.1593V44.546ZM52.8633 53.133H49.4963V49.792H52.8633V53.133ZM52.8633 48.837H49.4963V45.497H52.8633V48.837ZM57.1953 53.133H53.8273V49.792H57.1953V53.133ZM57.1953 48.837H53.8273V45.497H57.1953V48.837ZM43.0973 32.476H52.7213V22.936H43.0973V32.476ZM48.3893 23.889H51.7573V27.228H48.3893V23.889ZM48.3893 28.184H51.7573V31.524H48.3893V28.184ZM44.0593 23.889H47.4263V27.228H44.0593V23.889ZM44.0593 28.184H47.4263V31.524H44.0593V28.184ZM11.2773 32.476H20.9013V22.936H11.2773V32.476ZM16.5683 23.889H19.9363V27.228H16.5683V23.889ZM16.5683 28.184H19.9363V31.524H16.5683V28.184ZM12.2383 23.889H15.6053V27.228H12.2383V23.889ZM12.2383 28.184H15.6053V31.524H12.2383V28.184ZM26.3393 44.546H16.7153V54.086H26.3393V44.546ZM21.0443 53.133H17.6773V49.792H21.0443V53.133ZM21.0443 48.837H17.6773V45.497H21.0443V48.837ZM25.3753 53.133H22.0073V49.792H25.3753V53.133ZM25.3753 48.837H22.0073V45.497H25.3753V48.837Z" fill="#002147"/>
</g>
</svg>
