<svg width="20" height="18" viewBox="0 0 20 18" fill="none" xmlns="http://www.w3.org/2000/svg">
<path d="M15.1429 4H4.85714C4.38571 4 4 4.32143 4 4.71429V13.2857C4 13.6786 4.38571 14 4.85714 14H11.2857V13.2857C11.2857 12.2857 12.2286 11.5 13.4286 11.5V10.7857C11.7571 10.7857 10.4286 11.8929 10.4286 13.2857H9.14286V11.8571H8.28571V13.2857H4.85714V4.71429H8.28571V9.71429H9.14286V7.92857H10.8571V7.21429H9.14286V4.71429H15.1429V7.21429H13.4286V7.92857H15.1429V13.2857H13.4286V14H15.1429C15.6143 14 16 13.6786 16 13.2857V4.71429C16 4.32143 15.6143 4 15.1429 4Z" fill="#1B1B1B" fill-opacity="0.8"/>
</svg>
