<svg width="49" height="46" viewBox="0 0 49 46" fill="none" xmlns="http://www.w3.org/2000/svg">
<path fill-rule="evenodd" clip-rule="evenodd" d="M43.7785 42.9168V44.6783C43.7785 45.1343 43.4113 45.5 42.9621 45.5H5.81352C5.36039 45.5 4.99711 45.1304 4.99711 44.6783V42.9168V33.6064V23.659C4.08304 24.0129 3.22757 24.0207 2.51663 23.777C1.96194 23.5883 1.49319 23.2501 1.14944 22.8137C0.805686 22.3773 0.586935 21.8465 0.520528 21.2606C0.418965 20.3524 0.688498 19.3262 1.45803 18.3629C1.49709 18.3157 1.54006 18.2686 1.59085 18.2292L23.8761 0.71715C24.1652 0.44979 24.6105 0.422268 24.9308 0.673901L47.2707 18.1545C47.3059 18.1821 47.3371 18.2096 47.3684 18.245C48.4035 19.3655 48.6614 20.608 48.4114 21.6578C48.2864 22.1767 48.0403 22.6446 47.7004 23.026C47.3606 23.4113 46.927 23.7101 46.4348 23.8871C45.6535 24.1702 44.7238 24.1623 43.7824 23.7141V33.6064V42.9168H43.7785ZM2.67288 19.4638C2.23929 20.0339 2.08694 20.604 2.13772 21.0837C2.16897 21.3589 2.26663 21.6027 2.42288 21.7993C2.57522 21.992 2.78226 22.1374 3.03226 22.2239C3.45804 22.3694 4.00882 22.3301 4.63773 22.0313L24.087 7.13773C24.3878 6.90575 24.798 6.91755 25.0831 7.14166L43.9777 21.9251C43.9856 21.933 43.9934 21.9408 44.0051 21.9448C44.6965 22.448 45.3606 22.5267 45.8762 22.3419C46.1145 22.2554 46.3215 22.1138 46.4817 21.929C46.6457 21.7443 46.7629 21.5241 46.8215 21.2764C46.9504 20.7338 46.7942 20.0654 46.216 19.4127L24.4308 2.36456L2.67288 19.4638ZM12.0596 30.1818H22.4894C22.8956 30.1818 23.2277 30.5082 23.2277 30.9092V39.1227C23.2277 39.5237 22.8956 39.85 22.4894 39.85H12.0596C11.6534 39.85 11.3214 39.5237 11.3214 39.1227V30.9092C11.3253 30.5082 11.6534 30.1818 12.0596 30.1818ZM26.9542 29.4584H36.7472C37.1848 29.4584 37.5402 29.828 37.5402 30.2841V43.8565H42.1418V22.7429C42.1418 22.6879 42.1457 22.6368 42.1574 22.5856L24.5753 8.82839L6.60259 22.5935C6.62212 22.6604 6.62993 22.7311 6.62993 22.8058V43.8526H26.1613V30.2801C26.1613 29.824 26.5167 29.4584 26.9542 29.4584ZM35.9543 31.1058H27.7511V43.8369H35.9543V31.1058ZM21.7511 35.7413H17.88V38.3953H21.7511V35.7413ZM16.4347 35.7413H12.7979V38.3953H16.4347V35.7413ZM12.7979 34.2866H16.4347V31.6366H12.7979V34.2866ZM17.88 34.2866H21.7511V31.6366H17.88V34.2866ZM24.2784 14.785C25.6652 14.785 26.7902 15.9174 26.7902 17.3131C26.7902 18.7089 25.6652 19.8413 24.2784 19.8413C22.8917 19.8413 21.7667 18.7089 21.7667 17.3131C21.7667 15.9134 22.8917 14.785 24.2784 14.785Z" fill="#1B1B1B"/>
</svg>
