<svg width="22" height="16" viewBox="0 0 22 16" fill="none" xmlns="http://www.w3.org/2000/svg">
<path d="M1 3.625L9.16492 8.62601C9.82609 9.03098 10.1567 9.23346 10.5163 9.31189C10.8339 9.38117 11.1661 9.38117 11.4837 9.31189C11.8433 9.23346 12.1739 9.03098 12.8351 8.62601L21 3.625M5.8 15H16.2C17.8802 15 18.7202 15 19.362 14.7139C19.9265 14.4622 20.3854 14.0607 20.673 13.5667C21 13.0052 21 12.2701 21 10.8V5.2C21 3.72986 21 2.99479 20.673 2.43327C20.3854 1.93935 19.9265 1.53778 19.362 1.28611C18.7202 1 17.8802 1 16.2 1H5.8C4.11984 1 3.27976 1 2.63803 1.28611C2.07354 1.53778 1.6146 1.93935 1.32698 2.43327C1 2.99479 1 3.72986 1 5.2V10.8C1 12.2701 1 13.0052 1.32698 13.5667C1.6146 14.0607 2.07354 14.4622 2.63803 14.7139C3.27976 15 4.11984 15 5.8 15Z" stroke="#002147" stroke-width="1.66667" stroke-linecap="round" stroke-linejoin="round"/>
</svg>
