<svg width="32" height="32" viewBox="0 0 32 32" fill="none" xmlns="http://www.w3.org/2000/svg">
<path fill-rule="evenodd" clip-rule="evenodd" d="M32 16C32 24.8367 24.8365 32 15.9999 32C7.16346 32 0 24.8367 0 16C0 7.16334 7.16346 0 15.9999 0C24.8365 0 32 7.16334 32 16ZM17.9999 8.00002C17.9999 9.10502 17.1046 9.99999 15.9999 9.99999C14.8954 9.99999 13.9999 9.10502 13.9999 8.00002C13.9999 6.89503 14.8954 6.00001 15.9999 6.00001C17.1046 6.00001 17.9999 6.89503 17.9999 8.00002ZM13.9999 14C12.8954 14 11.9999 14.895 11.9999 16C11.9999 17.105 12.8954 18 13.9999 18V24C13.9999 25.105 14.8954 26 15.9999 26H17.9999C19.1046 26 19.9999 25.105 19.9999 24C19.9999 22.895 19.1046 22 17.9999 22V16C17.9999 14.895 17.1046 14 15.9999 14H13.9999Z" fill="#002147"/>
</svg>
