<svg width="45" height="44" viewBox="0 0 45 44" fill="none" xmlns="http://www.w3.org/2000/svg">
<path d="M41.1276 19.2973L22.4609 2L1.46094 21.4595H6.1276V36.5946C6.1276 37.7415 6.61927 38.8414 7.49444 39.6524C8.36961 40.4633 9.55659 40.9189 10.7943 40.9189H20.4986M36.4609 38.7568C35.2233 38.7568 34.0363 38.3012 33.1611 37.4902C32.2859 36.6792 31.7943 35.5793 31.7943 34.4324C31.7943 33.2855 32.2859 32.1856 33.1611 31.3747C34.0363 30.5637 35.2233 30.1081 36.4609 30.1081M36.4609 38.7568C37.6986 38.7568 38.8856 38.3012 39.7608 37.4902C40.6359 36.6792 41.1276 35.5793 41.1276 34.4324C41.1276 33.2855 40.6359 32.1856 39.7608 31.3747C38.8856 30.5637 37.6986 30.1081 36.4609 30.1081M36.4609 38.7568V42M36.4609 30.1081V26.8649M43.5356 30.6486L40.5046 32.2703M32.4243 36.5946L29.3909 38.2162M29.3909 30.6486L32.4243 32.2703M40.5046 36.5946L43.5379 38.2162" stroke="#1B1B1B" stroke-width="2.66667" stroke-linecap="round" stroke-linejoin="round"/>
</svg>
