<svg width="24" height="24" viewBox="0 0 24 24" fill="none" xmlns="http://www.w3.org/2000/svg">
<path d="M18.4396 11.7202V17.88C18.4396 18.1771 18.3216 18.4619 18.1115 18.672C17.9015 18.882 17.6166 19 17.3196 19H6.11996C5.82293 19 5.53806 18.882 5.32803 18.672C5.118 18.4619 5 18.1771 5 17.88V6.68039C5 6.38335 5.118 6.09849 5.32803 5.88845C5.53806 5.67842 5.82293 5.56042 6.11996 5.56042H12.2798C12.4283 5.56042 12.5707 5.61942 12.6757 5.72444C12.7808 5.82946 12.8398 5.97189 12.8398 6.12041C12.8398 6.26892 12.7808 6.41136 12.6757 6.51637C12.5707 6.62139 12.4283 6.68039 12.2798 6.68039H6.11996V17.88H17.3196V11.7202C17.3196 11.5717 17.3786 11.4293 17.4836 11.3243C17.5886 11.2192 17.7311 11.1602 17.8796 11.1602C18.0281 11.1602 18.1705 11.2192 18.2756 11.3243C18.3806 11.4293 18.4396 11.5717 18.4396 11.7202ZM18.8358 8.19654L12.116 14.9163C12.0639 14.9683 12.0022 15.0095 11.9342 15.0376C11.8662 15.0657 11.7933 15.0802 11.7198 15.0801H9.47986C9.33134 15.0801 9.18891 15.0211 9.08389 14.9161C8.97887 14.8111 8.91988 14.6687 8.91988 14.5201V12.2802C8.91982 12.2067 8.93425 12.1338 8.96236 12.0658C8.99046 11.9978 9.03169 11.9361 9.08367 11.884L15.8035 5.16424C15.8555 5.11217 15.9172 5.07087 15.9852 5.04269C16.0532 5.0145 16.1261 5 16.1996 5C16.2732 5 16.3461 5.0145 16.4141 5.04269C16.4821 5.07087 16.5438 5.11217 16.5958 5.16424L18.8358 7.40416C18.8878 7.45617 18.9291 7.51793 18.9573 7.58591C18.9855 7.65389 19 7.72676 19 7.80035C19 7.87394 18.9855 7.94681 18.9573 8.01479C18.9291 8.08277 18.8878 8.14453 18.8358 8.19654ZM17.6458 7.80035L16.1996 6.3521L15.3114 7.24037L16.7596 8.68862L17.6458 7.80035Z" fill="#6699CC"/>
</svg>
