<svg width="54" height="68" viewBox="0 0 54 68" fill="none" xmlns="http://www.w3.org/2000/svg">
<path d="M8.9944 57.2764H5.67079C4.84366 58.3099 3.9322 59.4553 3.09001 60.4878V57.2764H0.313477V67.0515H3.09001V63.7982L5.89464 67.0515H9.33067V66.8836C7.97052 65.3334 6.3855 63.5743 5.01129 62.066L8.9944 57.4443V57.2764ZM53.0334 62.15C53.0334 58.9386 50.8321 57.0396 47.6058 57.0396C44.3947 57.0396 42.1782 58.9386 42.1782 62.15C42.1782 67.1255 47.38 68.085 50.2278 66.7437L51.4625 68.0001L53.3135 66.185L52.2053 65.0535C52.7242 64.2439 53.0324 63.2524 53.0324 62.149L53.0334 62.15ZM50.2569 62.15C50.2569 65.9351 44.9277 65.8072 44.9277 62.15C44.9277 58.5008 50.2569 58.4029 50.2569 62.15ZM41.1273 67.0515V57.2764H38.3648V67.0515H41.1273ZM31.1846 63.0435H33.5264C34.9037 63.0435 34.9549 64.9006 33.5264 64.9006H31.1846V63.0435ZM31.1846 59.5103H33.4281C34.5343 59.5103 34.6346 61.0046 33.4 61.0046H31.1835V59.5103H31.1846ZM28.4502 57.2764V67.0515H33.5134C38.1219 67.0336 38.0516 63.0375 35.9536 61.9131C37.7123 61.1095 37.6942 57.2764 33.4712 57.2764H28.4502ZM24.1408 57.2764V62.7477C24.1408 64.23 23.397 64.9006 22.2758 64.9006C21.1535 64.9006 20.4107 64.2579 20.4107 62.7197V57.2764H17.6482V62.7197C17.6482 65.7102 19.4009 67.2604 22.2768 67.2604C25.1517 67.2604 26.9184 65.6403 26.9053 62.7477V57.2764H24.1428H24.1408ZM10.1729 57.2764V67.0515H18.0678C17.4123 66.4428 16.9355 65.6542 16.6635 64.7057H12.9494V57.2764H10.1729Z" fill="white"/>
<path d="M26.8137 52.1819C41.2855 52.1819 53.0171 40.5006 53.0171 26.0909C53.0171 11.6813 41.2855 0 26.8137 0C12.342 0 0.610352 11.6813 0.610352 26.0909C0.610352 40.5006 12.342 52.1819 26.8137 52.1819Z" fill="#002147"/>
<path fill-rule="evenodd" clip-rule="evenodd" d="M36.2515 31.1349V37.6627H17.3759V31.1349L12.4472 35.2219L6.04596 40.5302C8.26236 43.6537 11.1714 46.2544 14.5502 48.1124L26.4503 40.1454L39.0612 48.1204C42.447 46.2624 45.3611 43.6587 47.5805 40.5302L41.1792 35.2219L36.2505 31.1349H36.2515ZM29.9918 4.96404L28.2211 15.1849L36.2515 25.3908V26.7681L44.3583 29.7406L51.41 32.3254C51.942 30.2874 52.2251 28.1484 52.2251 25.9445C52.2251 25.3199 52.202 24.6992 52.1578 24.0855L35.1875 19.8156L39.2348 3.86559C36.635 2.41232 33.752 1.40083 30.6894 0.935059L29.9918 4.96304V4.96404ZM14.3926 3.86659L18.44 19.8166L1.4696 24.0865C1.42443 24.7002 1.40234 25.3199 1.40234 25.9455C1.40234 28.1494 1.68542 30.2874 2.21743 32.3264L9.26918 29.7416L17.3759 26.7691V25.3918L25.4074 15.1909L23.6357 4.96504L22.938 0.937058C19.8754 1.40382 16.9925 2.41532 14.3926 3.86759V3.86659Z" fill="white"/>
<path fill-rule="evenodd" clip-rule="evenodd" d="M32.7733 50.5489C31.8167 48.2071 29.5089 46.5569 26.8137 46.5569C24.1185 46.5569 21.8107 48.2071 20.8541 50.5489C22.7653 51.0067 24.7609 51.2485 26.8137 51.2485C28.8665 51.2485 30.862 51.0067 32.7733 50.5489ZM45.0268 8.30203C43.1105 10.306 42.6588 13.4005 44.1183 15.9182C45.5849 18.4479 48.524 19.6044 51.2363 18.9337C50.0649 14.8797 47.9017 11.2436 45.0268 8.30203ZM2.59082 18.276C5.24589 18.8438 8.07863 17.6833 9.50906 15.2156C10.8813 12.8488 10.5641 9.97219 8.92986 7.97119C6.04994 10.8128 3.84859 14.336 2.59082 18.276ZM31.7825 33.2136V26.9267L26.8157 20.6139L21.8448 26.9277V33.2136H31.7825Z" fill="#FFD700"/>
</svg>
