<svg width="24" height="24" viewBox="0 0 24 24" fill="none" xmlns="http://www.w3.org/2000/svg">
    <path
        d="M12 18L11.6308 17.7041C11.4 17.5397 6 13.0027 6 10.274C6 7.90685 8.67692 6 12 6C15.3231 6 18 7.90685 18 10.274C18 13.0027 12.6 17.5397 12.3692 17.737L12 18ZM12 6.65753C9.18462 6.65753 6.92308 8.26849 6.92308 10.274C6.92308 12.3781 10.8 15.9288 12 16.9808C13.2 15.9288 17.0769 12.3781 17.0769 10.274C17.0769 8.26849 14.8154 6.65753 12 6.65753Z"
        fill="#FFF" fill-opacity="0.8" />
    <path
        d="M12 13.9082C10.32 13.9082 9 12.5882 9 10.9082C9 9.2282 10.32 7.9082 12 7.9082C13.68 7.9082 15 9.2282 15 10.9082C15 12.5882 13.68 13.9082 12 13.9082ZM12 9.1082C10.98 9.1082 10.2 9.8882 10.2 10.9082C10.2 11.9282 10.98 12.7082 12 12.7082C13.02 12.7082 13.8 11.9282 13.8 10.9082C13.8 9.8882 13.02 9.1082 12 9.1082Z"
        fill="#FFF" fill-opacity="0.8" />
</svg>