<svg width="57" height="56" viewBox="0 0 57 56" fill="none" xmlns="http://www.w3.org/2000/svg">
<path fill-rule="evenodd" clip-rule="evenodd" d="M20.3346 28C24.8461 28 28.5013 23.5243 28.5013 18C28.5013 12.4757 24.8461 8 20.3346 8C15.8231 8 12.168 12.4757 12.168 18C12.168 23.5243 15.8231 28 20.3346 28ZM26.168 18C26.168 21.9471 23.5581 25.1429 20.3346 25.1429C17.1111 25.1429 14.5013 21.9471 14.5013 18C14.5013 14.0529 17.1111 10.8571 20.3346 10.8571C23.5581 10.8571 26.168 14.0529 26.168 18ZM5.16797 48V40C5.16797 33.92 15.2725 30.8571 20.3346 30.8571C23.7016 30.8571 29.3005 32.2129 32.6721 34.91C35.0755 34.1143 37.711 33.7143 39.5846 33.7143C41.7523 33.7143 44.6608 34.2486 47.063 35.3286C48.26 35.8686 49.4068 36.5771 50.2736 37.4943C51.1475 38.4186 51.8346 39.6686 51.8346 41.2371V48H5.16797ZM7.5013 40C7.5013 39.5471 7.67164 38.9271 8.39497 38.1214C9.13347 37.2986 10.2698 36.5014 11.7083 35.8071C14.5911 34.4143 18.0911 33.7143 20.3346 33.7143C22.5781 33.7143 26.0793 34.4143 28.9598 35.8071C30.3995 36.5014 31.5358 37.2986 32.2731 38.1214C32.9976 38.9271 33.168 39.5471 33.168 40V45.1429H7.5013V40ZM34.7465 37.2429C36.5116 36.7957 38.2815 36.5714 39.5846 36.5714C41.5061 36.5714 44.1381 37.0571 46.258 38.0114C47.3185 38.4886 48.176 39.0514 48.7488 39.6571C49.3146 40.2557 49.5013 40.7814 49.5013 41.2386V45.1429H35.5013V40C35.5013 39 35.2271 38.0786 34.7465 37.2429ZM46.0013 23C46.0013 27.3414 43.1301 30.8571 39.5846 30.8571C37.8828 30.8571 36.2507 30.0293 35.0474 28.5558C33.844 27.0823 33.168 25.0838 33.168 23C33.168 18.6586 36.0391 15.1429 39.5846 15.1429C43.1301 15.1429 46.0013 18.6586 46.0013 23ZM39.5846 28C41.841 28 43.668 25.7629 43.668 23C43.668 20.2371 41.841 18 39.5846 18C38.5017 18 37.4631 18.5268 36.6973 19.4645C35.9315 20.4021 35.5013 21.6739 35.5013 23C35.5013 25.7629 37.3283 28 39.5846 28Z" fill="#1B1B1B"/>
</svg>
