<svg width="30" height="28" viewBox="0 0 30 28" fill="none" xmlns="http://www.w3.org/2000/svg">
<path d="M23.1334 16.7567L18.8935 15.0679L18.8818 15.0631C18.6617 14.9794 18.4216 14.9459 18.1832 14.9654C17.9448 14.985 17.7157 15.057 17.5165 15.1751C17.493 15.1889 17.4705 15.2039 17.449 15.2199L15.2584 16.8799C13.8706 16.2807 12.4378 15.0167 11.7636 13.7991L13.6339 11.8223C13.6519 11.8023 13.669 11.7823 13.6852 11.7607C13.8151 11.5841 13.894 11.3817 13.9147 11.1715C13.9355 10.9613 13.8974 10.7499 13.804 10.5559V10.5463L11.8987 6.77105C11.7751 6.51765 11.5627 6.30657 11.2931 6.16931C11.0235 6.03205 10.7112 5.97597 10.4028 6.00944C9.1833 6.15208 8.06388 6.68446 7.25366 7.50713C6.44343 8.3298 5.9978 9.3865 6.00001 10.4799C6.00001 16.8319 11.814 22 18.9601 22C20.1901 22.002 21.3789 21.6058 22.3044 20.8856C23.2299 20.1654 23.8289 19.1704 23.9893 18.0864C24.0271 17.8123 23.9641 17.5348 23.8098 17.2952C23.6556 17.0556 23.4183 16.8667 23.1334 16.7567ZM18.9601 20.72C15.9058 20.717 12.9776 19.6372 10.8179 17.7175C8.65814 15.7977 7.44335 13.1948 7.44002 10.4799C7.43663 9.69867 7.75327 8.94306 8.33079 8.35419C8.90831 7.76531 9.70723 7.38342 10.5783 7.27985C10.578 7.28304 10.578 7.28626 10.5783 7.28945L12.4684 11.0495L10.608 13.0287C10.5892 13.048 10.572 13.0686 10.5567 13.0903C10.4213 13.275 10.3419 13.4877 10.3261 13.7078C10.3103 13.9279 10.3588 14.1478 10.4667 14.3463C11.2821 15.8287 12.9625 17.3111 14.6482 18.0352C14.8731 18.1302 15.122 18.1718 15.3705 18.1558C15.6189 18.1398 15.8585 18.0668 16.0657 17.944C16.0888 17.9301 16.111 17.9152 16.1323 17.8992L18.3202 16.2399L22.5502 17.924C22.5502 17.924 22.5574 17.924 22.5601 17.924C22.445 18.6994 22.016 19.411 21.3534 19.9256C20.6908 20.4402 19.84 20.7226 18.9601 20.72Z" fill="#002147"/>
</svg>
