<svg width="17" height="16" viewBox="0 0 17 16" fill="none" xmlns="http://www.w3.org/2000/svg">
<path d="M8.5013 7.9987C10.3423 7.9987 11.8346 6.50631 11.8346 4.66536C11.8346 2.82442 10.3423 1.33203 8.5013 1.33203C6.66035 1.33203 5.16797 2.82442 5.16797 4.66536C5.16797 6.50631 6.66035 7.9987 8.5013 7.9987Z" stroke="#1B1B1B" stroke-width="1.5" stroke-linecap="round" stroke-linejoin="round"/>
<path d="M2.77344 14.6667C2.77344 12.0867 5.3401 10 8.5001 10C9.1401 10 9.76011 10.0867 10.3401 10.2467" stroke="#1B1B1B" stroke-width="1.5" stroke-linecap="round" stroke-linejoin="round"/>
<path d="M15.1654 12.0007C15.1654 12.214 15.1387 12.4206 15.0854 12.6206C15.0254 12.8873 14.9187 13.1473 14.7787 13.374C14.3187 14.1473 13.472 14.6673 12.4987 14.6673C11.812 14.6673 11.192 14.4073 10.7254 13.9806C10.5254 13.8073 10.352 13.6006 10.2187 13.374C9.97202 12.974 9.83203 12.5007 9.83203 12.0007C9.83203 11.2807 10.1187 10.6207 10.5854 10.1407C11.072 9.64067 11.752 9.33398 12.4987 9.33398C13.2854 9.33398 13.9987 9.674 14.4787 10.2207C14.9054 10.694 15.1654 11.3207 15.1654 12.0007Z" stroke="#1B1B1B" stroke-width="1.5" stroke-miterlimit="10" stroke-linecap="round" stroke-linejoin="round"/>
<path d="M13.4945 11.9844H11.5078" stroke="#1B1B1B" stroke-width="1.5" stroke-miterlimit="10" stroke-linecap="round" stroke-linejoin="round"/>
<path d="M12.5 11.0117V13.005" stroke="#1B1B1B" stroke-width="1.5" stroke-miterlimit="10" stroke-linecap="round" stroke-linejoin="round"/>
</svg>
