<svg width="28" height="34" viewBox="0 0 28 34" fill="none" xmlns="http://www.w3.org/2000/svg">
<path d="M4.0013 0.333984C3.11725 0.333984 2.2694 0.685174 1.64428 1.31029C1.01916 1.93542 0.667969 2.78326 0.667969 3.66732V30.334C0.667969 31.218 1.01916 32.0659 1.64428 32.691C2.2694 33.3161 3.11725 33.6673 4.0013 33.6673H24.0013C24.8854 33.6673 25.7332 33.3161 26.3583 32.691C26.9834 32.0659 27.3346 31.218 27.3346 30.334V13.3807C27.3344 12.4967 26.9831 11.649 26.358 11.024L16.6446 1.31065C16.0197 0.685486 15.172 0.334173 14.288 0.333984H4.0013ZM3.16797 3.66732C3.16797 3.4463 3.25577 3.23434 3.41205 3.07806C3.56833 2.92178 3.78029 2.83398 4.0013 2.83398H14.0013V10.334C14.0013 11.218 14.3525 12.0659 14.9776 12.691C15.6027 13.3161 16.4506 13.6673 17.3346 13.6673H24.8346V30.334C24.8346 30.555 24.7468 30.767 24.5906 30.9232C24.4343 31.0795 24.2223 31.1673 24.0013 31.1673H4.0013C3.78029 31.1673 3.56833 31.0795 3.41205 30.9232C3.25577 30.767 3.16797 30.555 3.16797 30.334V3.66732ZM22.968 11.1673H17.3346C17.1136 11.1673 16.9017 11.0795 16.7454 10.9232C16.5891 10.767 16.5013 10.555 16.5013 10.334V4.70065L22.968 11.1673Z" fill="#002147"/>
</svg>
