<svg width="100.000000" height="100.000000" viewBox="0 0 100 100" fill="none" xmlns="http://www.w3.org/2000/svg" xmlns:xlink="http://www.w3.org/1999/xlink">
	<desc>
			Created with Pixso.
	</desc>
	<defs/>
	<g opacity="0.000000"/>
	<path id="Vector" d="M80.79 23.87L56.04 9.58C52 7.25 47 7.25 42.91 9.58L18.2 23.87C14.16 26.2 11.66 30.54 11.66 35.25L11.66 63.75C11.66 68.41 14.16 72.75 18.2 75.12L42.95 89.41C47 91.75 52 91.75 56.08 89.41L80.83 75.12C84.87 72.79 87.37 68.45 87.37 63.75L87.37 35.25C87.33 30.54 84.83 26.25 80.79 23.87ZM49.5 30.08C54.87 30.08 59.2 34.41 59.2 39.79C59.2 45.16 54.87 49.5 49.5 49.5C44.12 49.5 39.79 45.16 39.79 39.79C39.79 34.45 44.12 30.08 49.5 30.08ZM60.66 68.91L38.33 68.91C34.95 68.91 33 65.16 34.87 62.37C37.7 58.16 43.2 55.33 49.5 55.33C55.79 55.33 61.29 58.16 64.12 62.37C66 65.12 64 68.91 60.66 68.91Z" fill="#FFFFFF" fill-opacity="1.000000" fill-rule="nonzero"/>
</svg>
